<?xml version="1.0" encoding="UTF-8"?>
<svg id="Ebene_1" data-name="Ebene 1" xmlns="http://www.w3.org/2000/svg" viewBox="0 0 525 525">
  <defs>
    <style>
      .cls-1 {
        fill: #fff;
      }

      .cls-2 {
        fill: #fd5f64;
      }
    </style>
  </defs>
  <g>
    <path d="M236.25,0H43.75c-11.6,0-22.73,4.61-30.94,12.81C4.61,21.02,0,32.15,0,43.75V481.25c0,11.6,4.61,22.73,12.81,30.94,8.21,8.2,19.34,12.81,30.94,12.81H236.25c11.6,0,22.73-4.61,30.94-12.81,8.2-8.21,12.81-19.34,12.81-30.94V43.75c0-11.6-4.61-22.73-12.81-30.94-8.21-8.2-19.34-12.81-30.94-12.81Zm26.25,481.25c0,6.96-2.77,13.64-7.69,18.56s-11.6,7.69-18.56,7.69H43.75c-6.96,0-13.64-2.77-18.56-7.69s-7.69-11.6-7.69-18.56V43.75c0-6.96,2.77-13.64,7.69-18.56s11.6-7.69,18.56-7.69h26.25v8.75c0,2.32,.92,4.55,2.56,6.19s3.87,2.56,6.19,2.56h122.5c2.32,0,4.55-.92,6.19-2.56s2.56-3.87,2.56-6.19v-8.75h26.25c6.96,0,13.64,2.77,18.56,7.69s7.69,11.6,7.69,18.56V481.25Z"/>
    <path d="M481.25,245h-166.25c-4.83,0-8.75,3.92-8.75,8.75s3.92,8.75,8.75,8.75h166.25c6.96,0,13.64,2.77,18.56,7.69s7.69,11.6,7.69,18.56v26.25h-8.75c-4.83,0-8.75,3.92-8.75,8.75v122.5c0,2.32,.92,4.55,2.56,6.19s3.87,2.56,6.19,2.56h8.75v26.25c0,6.96-2.77,13.64-7.69,18.56s-11.6,7.69-18.56,7.69h-183.75c-4.83,0-8.75,3.92-8.75,8.75s3.92,8.75,8.75,8.75h183.75c11.6,0,22.73-4.61,30.94-12.81,8.2-8.21,12.81-19.34,12.81-30.94v-192.5c0-11.6-4.61-22.73-12.81-30.94-8.21-8.2-19.34-12.81-30.94-12.81h0Z"/>
    <path d="M334.25,101.5c1.67,2.18,4.25,3.47,7,3.5,1.89,.01,3.74-.6,5.25-1.75,3.87-2.9,4.65-8.38,1.75-12.25l-13.82-18.55c30.76,5.25,59.41,19.09,82.63,39.93,23.22,20.84,40.08,47.83,48.62,77.84l-23.8-14c-2-1.46-4.53-2-6.95-1.49-2.43,.51-4.52,2.02-5.76,4.16-1.25,2.14-1.52,4.71-.77,7.07,.75,2.36,2.47,4.29,4.73,5.3l37.62,22.23c1.31,.81,2.83,1.23,4.38,1.23h2.27c2.27-.48,4.2-1.96,5.25-4.03l22.23-37.62c2.44-4.17,1.12-9.52-2.98-12.07-4.21-2.41-9.57-1.01-12.07,3.15l-8.93,15.23c-10.29-31.76-29.09-60.09-54.36-81.9-25.27-21.82-56.04-36.28-88.96-41.83l17.5-13.3h0c3.87-2.9,4.65-8.38,1.75-12.25-2.9-3.87-8.38-4.65-12.25-1.75l-35,26.25c-3.86,2.9-4.65,8.38-1.75,12.25l26.42,34.65Z"/>
  </g>
  <rect class="cls-1" x="64.77" y="197.32" width="150.46" height="150.46" rx="40" ry="40"/>
  <g>
    <path class="cls-2" d="M135.67,222.89c-2.79,.28-7.04,1.18-9.85,2.08-18.27,5.84-31.17,21.24-33.81,40.44-.37,2.5-.37,9.7,0,12.21,2.91,21.02,18.17,37.47,38.71,41.7,15.16,3.13,30.82-1.16,42.52-11.64,2.24-2.01,2.6-2.56,2.6-3.95,0-1.81-1.34-3.17-3.13-3.17-1.16,0-1.61,.26-3.52,1.99-4.66,4.23-9.64,7.14-15.56,9.11-14.85,4.94-31.19,1.18-42.54-9.83-16.86-16.32-17.29-42.86-.98-59.69,10.7-11.05,26.1-15.38,40.99-11.53,7.16,1.83,13.28,5.31,18.82,10.68,5.43,5.27,9.3,11.8,11.31,19.12,.28,1,.51,1.91,.51,2.03,0,.1-1.63-1.42-3.6-3.4-3.89-3.87-4.19-4.05-5.9-3.72-1,.18-2.22,1.4-2.4,2.4-.35,1.83-.47,1.69,7.38,9.54,7.83,7.83,7.71,7.73,9.52,7.41,1.55-.31,1.89-.9,5.59-10.19,1.89-4.74,3.42-8.85,3.44-9.22,.02-2.08-1.87-3.6-3.99-3.21-1.22,.24-2.1,1.36-3.11,4.01-.49,1.28-.96,2.38-1.02,2.48-.08,.08-.35-.53-.61-1.32-.73-2.3-2.14-5.82-3.03-7.61-3.38-6.73-9.13-13.41-15.4-17.9-6.12-4.39-14.04-7.53-21.44-8.52-2.89-.39-9.03-.55-11.51-.31Z"/>
    <path class="cls-2" d="M137.62,242.52c-3.62,.79-7.08,3.5-8.73,6.84-1.22,2.46-1.46,3.82-1.46,8.46v3.93h-1.93c-2.3,0-3.07,.26-3.89,1.34l-.59,.75v28.36l.59,.75c1.08,1.42,.1,1.36,19.12,1.3,16.99-.06,17.19-.06,17.74-.49,.31-.22,.75-.67,.98-.98,.43-.55,.43-.73,.43-14.77s0-14.22-.43-14.77c-.9-1.22-1.36-1.4-3.76-1.46l-2.22-.08v-3.89c0-4.64-.24-6-1.46-8.46-2.56-5.21-8.61-8.08-14.38-6.84Zm5.51,6.86c1.42,.65,2.52,1.75,3.19,3.19,.51,1.1,.53,1.32,.59,5.15l.08,4.03h-13.06v-3.62c0-2.6,.08-3.91,.31-4.64,1.14-3.84,5.27-5.76,8.89-4.11Z"/>
  </g>
</svg>