<svg width="89" height="89" viewBox="0 0 89 89" fill="none" xmlns="http://www.w3.org/2000/svg">
<path fill-rule="evenodd" clip-rule="evenodd" d="M44.5299 0C69.0198 0 88.8805 19.9276 88.8805 44.5C86.551 103.534 2.50873 103.534 0.179199 44.5C0.179199 19.9276 20.0399 0 44.5299 0ZM44.8883 16.6613C8.06376 18.1296 8.0339 70.9603 44.8883 72.4286C60.2393 72.4286 72.6933 59.9327 72.6933 44.53C72.6933 29.1273 60.2094 16.6613 44.8883 16.6613Z" fill="url(#paint0_radial_5_109)"/>
<path fill-rule="evenodd" clip-rule="evenodd" d="M72.6634 44.5599C72.6634 59.9626 60.2094 72.4586 44.8584 72.4586C8.00403 70.9902 8.0339 18.1596 44.8584 16.6912C60.2094 16.6613 72.6634 29.1572 72.6634 44.5599Z" fill="url(#paint1_radial_5_109)"/>
<path fill-rule="evenodd" clip-rule="evenodd" d="M74.0074 34.2747L76.9044 33.3757C77.0836 34.5444 77.8302 35.8929 78.7262 36.3723C79.8909 37.1215 82.0413 36.4323 82.4594 35.0538C83.0567 33.9151 81.8919 30.9185 81.3842 29.9595L73.4399 32.4467L74.0074 34.2747ZM80.6674 32.177C81.1453 33.0461 81.3544 34.3945 80.2195 34.7242C79.1443 35.1137 78.3977 34.005 78.2782 32.9262L80.6674 32.177Z" fill="white"/>
<path fill-rule="evenodd" clip-rule="evenodd" d="M70.304 27.1427C71.6779 29.2104 73.9775 29.6599 76.307 28.1316C81.1453 24.9552 76.546 18.1528 71.6778 21.4491C69.6768 22.7976 68.9003 25.075 70.304 27.1427ZM72.8127 23.0972C74.1866 22.1983 75.6201 22.1383 76.3369 23.2171C77.8899 25.4646 72.9919 28.671 71.5883 26.3935C70.9013 25.3147 71.4389 24.0262 72.8127 23.0972Z" fill="white"/>
<path fill-rule="evenodd" clip-rule="evenodd" d="M62.8376 19.1417L65.0775 16.3848L67.5265 18.3626L65.2866 21.1195L66.7799 22.3181L72.0661 15.7555L70.6027 14.5269L68.5718 17.074L66.1228 15.0962L68.1537 12.5491L66.6604 11.3504L61.3742 17.943L62.8376 19.1417Z" fill="white"/>
<path fill-rule="evenodd" clip-rule="evenodd" d="M56.3866 15.6956C58.507 16.6245 59.9705 15.9353 60.5379 14.6467C61.0158 13.538 60.6872 12.5491 59.5225 11.4703C58.6862 10.6612 58.3577 10.2417 58.5668 9.76223C58.746 9.37266 59.2537 9.1629 60.0302 9.49253C60.7768 9.82216 61.2547 10.2717 61.4936 10.5713L62.4792 9.3427C61.0456 7.69455 57.7007 6.85549 56.745 9.1629C56.2671 10.3016 56.8047 11.3804 57.8799 12.3993C58.6862 13.1185 58.9252 13.5679 58.7161 14.0474C58.1487 15.3659 55.849 13.7178 55.401 13.0286L54.4154 14.3171C54.7141 14.6767 55.4906 15.306 56.3866 15.6956Z" fill="white"/>
<path fill-rule="evenodd" clip-rule="evenodd" d="M47.7255 5.65684C46.5607 4.54808 43.395 4.57805 41.7225 4.84775L41.5732 13.1484C43.2755 13.4481 46.3815 13.4481 47.6658 12.2794C49.398 10.9609 49.6966 7.03529 47.7255 5.65684ZM44.1416 11.7999C43.9027 11.7999 43.6339 11.7999 43.4846 11.74L43.5742 6.19623C45.4258 5.8666 47.1581 6.67569 47.0685 8.86323C47.0386 10.9309 45.8738 11.8599 44.1416 11.7999Z" fill="white"/>
<path fill-rule="evenodd" clip-rule="evenodd" d="M39.4825 13.508L39.0943 11.9797L35.7493 12.8488L35.2416 10.9009L38.2581 10.1218L37.8698 8.62351L34.8534 9.40263L34.4054 7.69455L37.601 6.85549L37.2127 5.32721L32.1953 6.64573L34.2859 14.8565L39.4825 13.508Z" fill="white"/>
<path fill-rule="evenodd" clip-rule="evenodd" d="M25.5651 11.4403L28.8205 17.4636L30.493 16.5346L27.2376 10.5114L29.2685 9.40263L28.4919 7.99422L22.7876 11.1107L23.5641 12.5191L25.5651 11.4403Z" fill="white"/>
<path fill-rule="evenodd" clip-rule="evenodd" d="M20.7567 19.1417C21.7423 18.7221 22.25 18.6622 22.6084 19.0518C23.5641 20.1306 21.145 21.539 20.3386 21.6888L21.1151 23.0972C21.6527 22.9774 22.5188 22.5279 23.2356 21.8686C24.9379 20.3104 24.9379 18.6922 23.9822 17.6434C23.1758 16.7743 22.1604 16.6545 20.6671 17.2538C19.5621 17.7033 19.0842 17.8232 18.696 17.4336C17.8896 16.5046 19.9802 15.2161 20.6074 15.0962L19.8906 13.6878C17.8 14.3171 15.6795 17.044 17.3819 18.872C18.1883 19.771 19.3829 19.711 20.7567 19.1417Z" fill="white"/>
<path fill-rule="evenodd" clip-rule="evenodd" d="M18.1882 28.0417C19.353 26.1838 18.9946 24.3858 16.8144 23.0073L12.8124 20.4902L11.797 22.1083L15.8886 24.6855C17.1728 25.4945 17.4715 26.3336 16.9339 27.1727C16.4262 27.9817 15.5003 28.0716 14.246 27.2925L10.1544 24.7154L9.13892 26.3336L13.1111 28.8508C15.4107 30.2592 17.0533 29.8397 18.1882 28.0417Z" fill="white"/>
<path fill-rule="evenodd" clip-rule="evenodd" d="M14.3057 36.7619L11.1101 35.8329L11.2594 35.2935C11.4983 34.5444 11.8567 34.2747 12.9319 34.3346C14.007 34.3945 14.6939 34.3646 14.9926 34.3346L15.5302 32.4467C15.1718 32.5067 14.0369 32.4467 13.0513 32.4467C12.245 32.4467 11.6178 32.5966 11.2295 33.106H11.1997C11.1399 31.4878 9.13892 30.3491 7.70536 31.3679C6.57046 32.0572 5.94328 35.0538 5.76408 36.3124L13.7681 38.6198L14.3057 36.7619ZM10.005 34.7541L9.79596 35.4733L7.5859 34.844C7.67549 33.975 8.09361 32.5966 9.25838 32.9562C9.97516 33.136 10.2738 33.8252 10.005 34.7541Z" fill="white"/>
<path fill-rule="evenodd" clip-rule="evenodd" d="M13.4097 42.6952L6.57047 42.5454L6.6302 40.208L5.04731 40.1781L4.86812 46.6807L6.48087 46.7107L6.5406 44.4333L13.35 44.6131L13.4097 42.6952Z" fill="white"/>
<path fill-rule="evenodd" clip-rule="evenodd" d="M15.2017 66.039L16.0678 67.4474L14.007 68.736C12.2151 67.2676 11.8268 64.6306 14.2161 63.2222C16.6651 61.604 19.0245 63.5518 19.3829 66.009L20.249 65.7693C19.6815 62.5929 16.456 60.4053 13.5591 62.2932C10.1544 64.4208 11.4983 68.0467 13.9772 69.9646L17.3221 67.8969L15.8886 65.5895L15.2017 66.039Z" fill="white"/>
<path fill-rule="evenodd" clip-rule="evenodd" d="M25.7144 70.4141L22.6084 74.1599C21.4436 75.5383 20.3386 75.6582 19.4127 74.8791C18.5765 74.1898 18.457 73.0511 19.6218 71.6727L22.7278 67.9568L21.9215 67.2676L18.8154 70.9235C17.1728 72.8713 17.5312 74.4296 18.8154 75.5083C20.1594 76.6471 21.8319 76.707 23.4446 74.7892L26.5208 71.1333L25.7144 70.4141Z" fill="white"/>
<path fill-rule="evenodd" clip-rule="evenodd" d="M24.1614 79.2541L25.147 79.7036L26.9688 77.6959L29.597 78.8946L29.3282 81.5915L30.3436 82.071L31.1799 73.4407L30.045 72.9313L24.1614 79.2541ZM30.254 74.07C30.045 74.9989 29.8956 77.0966 29.7762 78.0855L27.5362 77.0666C28.2232 76.3174 29.6567 74.8491 30.254 74.07Z" fill="white"/>
<path fill-rule="evenodd" clip-rule="evenodd" d="M37.4517 75.3585C36.7349 75.2087 35.9883 75.1488 35.4208 75.1188L33.8678 83.0599L34.9131 83.2696L35.6 79.7935L36.5856 79.9733C37.5114 80.1831 37.8698 80.6925 37.8997 81.8612C37.9295 82.91 37.9594 83.6292 38.049 83.8989L39.1242 84.1087C39.0047 83.7791 38.9748 82.94 38.945 81.7713C38.9151 80.9023 38.6762 80.243 38.1087 79.9134V79.8834C39.6916 79.7636 40.6473 77.7858 39.6916 76.4673C39.2436 75.9279 38.5567 75.5683 37.4517 75.3585ZM38.9151 78.0555C38.7359 78.9845 37.8997 79.4339 36.7946 79.2242L35.7493 79.0144L36.3168 76.0777C37.4815 76.0478 39.2735 76.4972 38.9151 78.0555Z" fill="white"/>
<path fill-rule="evenodd" clip-rule="evenodd" d="M44.7091 76.1676L42.0211 84.4084H43.1262L43.9325 81.8313L46.8295 81.8013L47.7255 84.3784L48.8604 84.3484L45.9634 76.1976L44.7091 76.1676ZM44.1416 80.9622C44.4403 80.0033 45.0973 78.0555 45.3064 77.0966H45.3362C45.5453 78.0255 46.2919 80.0033 46.6205 80.9323L44.1416 80.9622Z" fill="white"/>
<path fill-rule="evenodd" clip-rule="evenodd" d="M55.4309 74.5794C55.9386 76.4673 56.5956 79.404 57.2228 81.142L57.1929 81.172C56.0879 79.7336 52.952 76.9467 51.5782 75.5983L50.4433 75.8979L52.4742 83.809L53.4299 83.5693C52.952 81.7413 52.1755 78.5649 51.6379 76.9168L51.6678 76.8868C52.8624 78.4151 55.9386 81.112 57.3721 82.5504L58.4174 82.2807L56.3866 74.3397L55.4309 74.5794Z" fill="white"/>
<path fill-rule="evenodd" clip-rule="evenodd" d="M63.4349 71.7026L62.9869 70.9235L57.7007 73.8302L58.1188 74.6094L60.299 73.4107L63.7933 79.8235L64.7191 79.3141L61.2248 72.9013L63.4349 71.7026Z" fill="white"/>
<path fill-rule="evenodd" clip-rule="evenodd" d="M69.7963 74.6693L67.7953 72.4817L70.1248 70.3541L69.5275 69.6949L67.198 71.8525L65.4658 69.9346L67.9148 67.6572L67.3175 66.9979L64.0621 70.0245L69.5872 76.0477L72.9919 72.9312L72.3946 72.272L69.7963 74.6693Z" fill="white"/>
<path fill-rule="evenodd" clip-rule="evenodd" d="M75.2916 68.5262L72.8128 66.908L74.545 64.241L73.7983 63.7915L72.096 66.4585L69.9158 65.0501L71.7376 62.2033L70.9909 61.7238L68.6017 65.4397L75.4708 69.9047L77.9497 66.039L77.203 65.5296L75.2916 68.5262Z" fill="white"/>
<path fill-rule="evenodd" clip-rule="evenodd" d="M84.2215 42.7851C84.1319 40.8073 82.9671 39.6386 81.5336 39.7285C80.3091 39.7885 79.5923 40.7774 79.1443 42.1858C78.8456 43.2346 78.5768 43.6242 78.0393 43.6541C76.6057 43.7141 77.0537 40.9272 77.4718 40.208L75.8889 39.9083C75.65 40.3878 75.4409 41.3767 75.5007 42.3356C75.6201 44.643 76.8745 45.6619 78.2782 45.6019C79.4728 45.542 80.1896 44.7929 80.6675 43.2945C81.0258 42.1558 81.2349 41.7063 81.7725 41.6764C83.0268 41.6464 82.6685 44.0737 82.3399 44.643L83.893 45.0026C84.102 44.4632 84.2513 43.774 84.2215 42.7851Z" fill="white"/>
<path fill-rule="evenodd" clip-rule="evenodd" d="M11.5879 54.3589C11.5282 56.4266 8.54162 56.4266 8.48189 54.3589C8.54162 52.2912 11.5282 52.2912 11.5879 54.3589Z" fill="#F7E19E"/>
<path fill-rule="evenodd" clip-rule="evenodd" d="M80.4584 54.3589C80.3987 56.4266 77.4121 56.4266 77.3523 54.3589C77.4121 52.2912 80.3987 52.2912 80.4584 54.3589Z" fill="#F1CB53"/>
<path fill-rule="evenodd" clip-rule="evenodd" d="M50.1745 26.1007C54.953 26.1007 58.298 28.3781 58.9252 32.064C59.2836 34.0417 58.8356 35.7798 58.2383 37.1283L58.1487 37.3081C58.1188 37.368 58.0889 37.4279 58.0591 37.4879L57.9695 37.6677C57.8799 37.8175 57.8201 37.9673 57.7305 38.0872L57.6409 38.237L57.5513 38.3869L57.4618 38.5367C57.4319 38.5667 57.4319 38.5966 57.402 38.5966L57.3124 38.7465L57.2228 38.8663L57.1332 38.9862C57.1034 39.0162 57.1034 39.0162 57.0735 39.0461L56.9839 39.166L56.8644 39.3458C56.8644 39.3758 56.8346 39.3758 56.8346 39.4057L56.7151 39.5556L56.5956 39.6754C54.8037 41.6832 51.9366 43.3912 47.8748 44.9795L47.4268 45.1593C44.7389 46.1781 41.9614 46.8973 39.2138 47.5266L38.3477 47.7364L37.4815 47.9162L36.1973 48.1859C35.9285 54.7485 37.601 58.1646 41.3342 58.6441C41.6628 58.6741 42.0211 58.704 42.3497 58.704C44.4701 58.704 46.2621 57.835 47.6658 56.9061L47.8748 56.7562L48.0839 56.6064L48.293 56.4566L48.502 56.3067L48.8007 56.097C50.6524 54.6286 52.1456 52.8906 53.3701 51.1525L53.8181 50.5532L55.849 52.3212L55.7295 52.471L55.4607 52.8606C55.3114 53.0704 55.1919 53.2502 55.0426 53.4599L54.7738 53.8495C53.0715 56.2468 51.3094 58.2246 48.8903 59.7828L48.6812 59.9027C48.6513 59.9327 48.6215 59.9327 48.5617 59.9626L48.3527 60.0825C48.1735 60.2024 47.9644 60.3222 47.7852 60.4121L47.5463 60.532L47.3074 60.6518C45.3362 61.6707 42.7081 62.5997 39.6617 62.5997C38.945 62.5997 38.1983 62.5397 37.5114 62.4498C31.9564 61.6407 28.8205 57.6253 28.7309 51.1226V50.9128C28.6711 44.9195 30.5228 39.4057 34.2859 34.5212L34.4352 34.3414C38.5866 29.0074 43.5742 26.2805 49.6966 26.0108C49.7564 26.1306 49.9654 26.1007 50.1745 26.1007ZM48.1735 29.0074C47.9346 29.0074 47.6658 29.0374 47.4268 29.0673L47.2775 29.0973C44.6792 29.5468 42.7977 31.2249 41.3044 33.2327L41.1252 33.4724C41.0953 33.5024 41.0654 33.5623 41.0356 33.5923L40.8564 33.832L40.6772 34.0717L40.498 34.3114L40.3188 34.5512L40.1695 34.7909L40.0201 35.0606L39.8708 35.3303C38.1386 38.1471 37.0037 41.3835 36.3466 45.2492C40.2292 44.5599 43.7235 43.2414 46.4711 41.4434C50.294 38.9263 52.1456 35.9596 51.9963 32.6933C51.847 30.5057 50.3238 29.0074 48.1735 29.0074Z" fill="#006DAD"/>
<path fill-rule="evenodd" clip-rule="evenodd" d="M28.9087 51.1825C28.849 45.0993 30.7007 39.4057 34.5235 34.4613C38.645 29.1273 43.9611 26.5502 50.0537 26.2805C50.2926 26.2805 50.5017 26.2505 50.7107 26.2505C51.9651 26.2505 53.1299 26.4303 54.1453 26.73C52.8013 26.1007 51.2185 25.771 49.3966 25.771C49.1876 25.771 48.9487 25.771 48.7396 25.801C42.647 26.0707 37.6594 28.7976 33.5379 34.1316C29.7151 39.0461 27.8037 44.6498 27.8634 50.703C27.9231 56.6064 30.3124 60.3821 34.7923 61.7306C31.1188 60.0525 28.9386 56.4865 28.9087 51.1825Z" fill="#044D73"/>
<path fill-rule="evenodd" clip-rule="evenodd" d="M43.3936 59.2434C46.1114 59.2434 47.8735 57.7152 49.4265 56.4865C51.3678 54.9583 53.1896 52.9205 54.4738 51.1525L53.6376 50.4633L53.3688 50.8828C52.0547 52.7108 50.5017 54.5687 48.5007 56.1569C46.9476 57.3855 44.8272 58.734 42.1094 58.734C41.7809 58.734 41.4822 58.6741 41.1537 58.6441C40.9446 58.6141 40.4966 58.4943 40.3174 58.4343C40.8849 58.734 41.6913 59.0936 42.408 59.1835C42.7366 59.2135 43.0651 59.2434 43.3936 59.2434Z" fill="#044D73"/>
<path fill-rule="evenodd" clip-rule="evenodd" d="M51.8755 32.7232C52.0547 36.0195 50.203 38.9562 46.3802 41.4734C43.9909 43.0616 41.0342 44.2603 37.749 44.9795C37.6893 45.2492 37.7191 45.0993 37.6893 45.3391C41.5419 44.6498 44.9466 43.7508 47.6943 41.9229C51.4872 39.4057 53.3389 36.4391 53.1896 33.1727C53.1 31.2249 51.9352 29.8165 50.1731 29.5168C51.1587 30.1461 51.7859 31.2848 51.8755 32.7232Z" fill="#044D73"/>
<defs>
<radialGradient id="paint0_radial_5_109" cx="0" cy="0" r="1" gradientUnits="userSpaceOnUse" gradientTransform="translate(25.6114 24.5148) scale(60.4389 60.6424)">
<stop stop-color="#9B9C9E"/>
<stop offset="0.3207" stop-color="#656667"/>
<stop offset="0.7848" stop-color="#1D1D1D"/>
<stop offset="1"/>
</radialGradient>
<radialGradient id="paint1_radial_5_109" cx="0" cy="0" r="1" gradientUnits="userSpaceOnUse" gradientTransform="translate(30.7064 26.856) rotate(49.9829) scale(49.9673 49.9385)">
<stop stop-color="#FFFEFC"/>
<stop offset="0.2422" stop-color="#FFFDF7"/>
<stop offset="1" stop-color="#F1CB54"/>
</radialGradient>
</defs>
</svg>
